@startuml adcs_state_diagram
!$attitude_threshold = "0.1 rad"
!$rate_threshold = "0.1 rad/s"
!$sleep_time = "1 s"

hide empty description

state initial_fork <<fork>>

[*] --> initial_fork
initial_fork --> RateHold
initial_fork --> OrbitPropagation
initial_fork --> KalmanFilter

!include orbit_propagation.pu

!include kalman_filter.pu

!include rate_hold.pu

!include attitude_hold.pu

@enduml